<?xml version="1.0" standalone="no"?><!DOCTYPE svg PUBLIC "-//W3C//DTD SVG 1.1//EN" "http://www.w3.org/Graphics/SVG/1.1/DTD/svg11.dtd"><svg t="1562487440235" class="icon" viewBox="0 0 1024 1024" version="1.1" xmlns="http://www.w3.org/2000/svg" p-id="2582" xmlns:xlink="http://www.w3.org/1999/xlink" width="16" height="16"><defs><style type="text/css"></style></defs><path d="M512 0C229.025845 0 0 229.025845 0 512c0 282.974155 229.025845 512 512 512s512-229.025845 512-512C1024 229.025845 794.974155 0 512 0z m0 106.878728c124.182903 0 224.954274 100.771372 224.954274 224.954274 0 124.182903-100.771372 224.954274-224.954274 224.954274s-224.954274-100.771372-224.954274-224.954274c0-125.200795 100.771372-224.954274 224.954274-224.954274z m356.262425 644.326043c-84.485089 101.789264-212.739563 166.934394-355.244532 166.934394-143.522863 0-271.777336-65.145129-357.280318-167.952286v-29.518887c0-20.357853 69.2167-189.328032 132.326043-200.524851 11.196819-2.035785 22.393638 3.053678 30.53678 13.232605 25.447316 32.572565 95.681909 85.502982 192.381709 79.395626 98.735586-6.107356 168.970179-53.94831 193.399603-82.449304 7.125249-8.143141 16.286282-12.214712 25.447316-10.178927C793.956262 529.304175 865.208748 689.11332 866.22664 721.685885v29.518886z" p-id="2583" fill="#707070"></path></svg>